<?xml version="1.0" encoding="UTF-8"?>
<svg id="Layer_1" data-name="Layer 1" xmlns="http://www.w3.org/2000/svg" viewBox="0 0 227.06 239">
  <defs>
    <style>
      .cls-1 {
        fill: #fff;
      }

      .cls-2 {
        fill: #0178d6;
      }
    </style>
  </defs>
  <path class="cls-2" d="M227.06,93c-6,87-92,146-113,146-18,0-102-53-113-149-2.39-20.86,0-44,0-59H18.06c11.88,0,34.54-6.37,45-12C76.06,12,86.06,0,114.06,0c20.25,0,19.95,2.48,53,19,22,11,31,11,43,12h17v62Zm-113,112c53-27,86-81,83-146-29-6-32.62-8.69-36-10-13.56-5.27-29-19-47-19-19,0-32.73,11.46-45,17-15.24,6.88-16,7-37,12-3,62,27,119,82,146Zm.23,17.58c64.77-29.58,105.77-98.58,97.77-177.58-34.8-7.2-36.94-6.42-41-8-16.27-6.32-34.4-21-56-21-22.8,0-35.28,12.36-50,19-18.29,8.26-23.8,6-49,12-5.83,75.62,32.23,143.18,98.23,175.58Z"/>
  <path class="cls-1" d="M145.71,99.83c-13.95-15.5-13.26-14.74-36.84-40.28-5.42-5.88-10.4-1.53-11.3-.98,0,0-6.88,4.42-2.95,10.32,3.71,5.56,32.42,36.84,32.42,36.84-11.3,8.35-32.91,25.05-50.6,37.83-3.11,2.25-3.25,6.61-.98,9.33,2.46,2.95,5.67,5.3,10.81,1.47,19.16-14.25,48.69-35.78,59.93-44.21,1.96-1.47,3.93-5.4-.49-10.32Z"/>
  <path class="cls-1" d="M109.36,145.02c.08-3.22,1.96-6.88,5.89-6.88h34.39c3.93,0,5.93,3.95,5.89,7.37-.03,3.21-1.96,6.88-5.4,6.88h-34.88c-3.93,0-5.98-4-5.89-7.37Z"/>
</svg>